HIERARCHY
ROOT Hips
{
	OFFSET 0.000000 0.000000 0.000000
	CHANNELS 6 Xposition Yposition Zposition Xrotation Yrotation Zrotation
	JOINT LeftUpLeg_virtual
	{
		OFFSET 0.000000 0.000000 0.000000
		CHANNELS 3 Xrotation Yrotation Zrotation
		JOINT LeftUpLeg
		{
			OFFSET 10.205400 -3.823500 0.155100
			CHANNELS 3 Xrotation Yrotation Zrotation
			JOINT LeftLeg
			{
				OFFSET 0.708757 -12.982077 0.567790
				CHANNELS 3 Xrotation Yrotation Zrotation
				JOINT LeftFoot
				{
					OFFSET -0.708756 -10.717838 -2.184338
					CHANNELS 3 Xrotation Yrotation Zrotation
					JOINT LeftToeBase
					{
						OFFSET 0.108149 -7.191104 7.560241
						CHANNELS 3 Xrotation Yrotation Zrotation
						JOINT LeftToe_End
						{
							OFFSET 0.070230 0.081724 4.490308
							CHANNELS 3 Xrotation Yrotation Zrotation
							End Site
							{
								OFFSET 0 0 0
							}
						}
					}
				}
			}
		}
	}
	JOINT RightUpLeg_virtual
	{
		OFFSET 0.000000 0.000000 0.000000
		CHANNELS 3 Xrotation Yrotation Zrotation
		JOINT RightUpLeg
		{
			OFFSET -10.205400 -3.823500 0.005500
			CHANNELS 3 Xrotation Yrotation Zrotation
			JOINT RightLeg
			{
				OFFSET -0.708756 -12.982134 0.610632
				CHANNELS 3 Xrotation Yrotation Zrotation
				JOINT RightFoot
				{
					OFFSET 0.708754 -10.717769 -1.945823
					CHANNELS 3 Xrotation Yrotation Zrotation
					JOINT RightToeBase
					{
						OFFSET -0.108140 -7.191069 7.372968
						CHANNELS 3 Xrotation Yrotation Zrotation
						JOINT RightToe_End
						{
							OFFSET -0.070227 0.081735 4.479403
							CHANNELS 3 Xrotation Yrotation Zrotation
							End Site
							{
								OFFSET 0 0 0
							}
						}
					}
				}
			}
		}
	}
	JOINT Spine_virtual
	{
		OFFSET 0.000000 0.000000 0.000000
		CHANNELS 3 Xrotation Yrotation Zrotation
		JOINT Spine
		{
			OFFSET 0.000000 6.876099 0.125700
			CHANNELS 3 Xrotation Yrotation Zrotation
			JOINT Spine1
			{
				OFFSET 0.000000 5.730043 0.104720
				CHANNELS 3 Xrotation Yrotation Zrotation
				JOINT Spine1_split
				{
					OFFSET 0.000000 5.730043 0.104720
					CHANNELS 3 Xrotation Yrotation Zrotation
					JOINT Spine2
					{
						OFFSET 0.000000 5.730043 0.104720
						CHANNELS 3 Xrotation Yrotation Zrotation
						JOINT Neck_virtual
						{
							OFFSET 0.000000 0.000000 0.000000
							CHANNELS 3 Xrotation Yrotation Zrotation
							JOINT Neck
							{
								OFFSET 0.000000 10.314075 0.188496
								CHANNELS 3 Xrotation Yrotation Zrotation
								JOINT Head
								{
									OFFSET 0.000000 7.643700 -2.377400
									CHANNELS 3 Xrotation Yrotation Zrotation
									JOINT HeadTop_End
									{
										OFFSET 0.000000 43.788605 -13.619600
										CHANNELS 3 Xrotation Yrotation Zrotation
										End Site
										{
											OFFSET 0 0 0
										}
									}
								}
							}
						}
						JOINT LeftShoulder_virtual
						{
							OFFSET 0.000000 0.000000 0.000000
							CHANNELS 3 Xrotation Yrotation Zrotation
							JOINT LeftShoulder
							{
								OFFSET 2.196100 4.412489 0.087492
								CHANNELS 3 Xrotation Yrotation Zrotation
								JOINT LeftShoulder_split
								{
									OFFSET 2.196100 4.412489 0.087492
									CHANNELS 3 Xrotation Yrotation Zrotation
									JOINT LeftArm
									{
										OFFSET 8.771219 -2.981674 -0.026999
										CHANNELS 3 Xrotation Yrotation Zrotation
										JOINT LeftForeArm
										{
											OFFSET 8.512804 0.000000 -0.000000
											CHANNELS 3 Xrotation Yrotation Zrotation
											JOINT LeftHand
											{
												OFFSET 18.484802 0.000000 -0.000000
												CHANNELS 3 Xrotation Yrotation Zrotation
												End Site
												{
													OFFSET 0 0 0
												}
											}
										}
									}
								}
							}
						}
						JOINT RightShoulder_virtual
						{
							OFFSET 0.000000 0.000000 0.000000
							CHANNELS 3 Xrotation Yrotation Zrotation
							JOINT RightShoulder
							{
								OFFSET -2.196100 4.412496 0.070690
								CHANNELS 3 Xrotation Yrotation Zrotation
								JOINT RightShoulder_split
								{
									OFFSET -2.196100 4.412496 0.070690
									CHANNELS 3 Xrotation Yrotation Zrotation
									JOINT RightArm
									{
										OFFSET -8.771282 -2.981682 -0.094208
										CHANNELS 3 Xrotation Yrotation Zrotation
										JOINT RightForeArm
										{
											OFFSET -8.494598 0.000000 0.000000
											CHANNELS 3 Xrotation Yrotation Zrotation
											JOINT RightHand
											{
												OFFSET -18.483803 0.000000 0.000001
												CHANNELS 3 Xrotation Yrotation Zrotation
												End Site
												{
													OFFSET 0 0 0
												}
											}
										}
									}
								}
							}
						}
					}
				}
			}
		}
	}
}
MOTION
Frames: 8
Frame Time: 0.03333333
0.239264 46.091572 6.010183 0.000000 0.000000 0.000000 -87.007540 -4.833248 2.815080 -8.006437 15.591724 10.074163 7.716378 3.007681 9.106339 22.353319 29.309049 -26.788673 -10.384099 0.164549 3.260681 0.000000 0.000000 0.000000 -88.204558 -2.605653 3.850661 -8.225292 -16.147720 -18.349532 16.163243 -0.246549 -8.843403 21.061491 -34.889802 35.184937 -7.476809 1.755397 -3.096202 0.000000 0.000000 0.000000 -86.054366 -5.599462 0.945634 5.810370 -2.231051 0.519630 4.819510 -1.035079 -1.486745 0.293924 0.775388 -0.394972 0.000000 0.000000 0.000000 5.958595 -1.416239 -1.406003 -8.402875 -1.780298 2.836084 -9.037332 -4.003042 4.792255 0.000000 0.000000 0.000000 6.575538 -1.594412 -0.877059 -0.403499 4.024120 -7.509116 -3.451317 1.034253 -4.163954 39.725364 -31.964070 -34.696114 -28.519650 -88.611951 -27.868111 0.000000 0.000000 0.000000 5.670159 -1.698618 -1.571413 0.523243 -3.872401 19.121733 1.496217 2.673638 0.163878 -40.987972 49.327121 59.004140 179.653537 76.671373 178.475343 0.000000 0.000000 0.000000 
0.217259 46.015068 5.858707 0.000000 0.000000 0.000000 -87.851450 -4.775900 2.808604 -6.775156 15.926941 9.892592 7.687469 3.538422 9.199222 21.523850 30.005024 -26.702300 -10.385159 0.222979 3.313230 0.000000 0.000000 0.000000 -89.286897 -2.465163 4.010142 -7.752196 -17.070224 -18.552624 16.087203 -0.090151 -8.636908 20.872532 -34.492442 35.210636 -7.388485 1.892667 -3.205981 0.000000 0.000000 0.000000 -87.074557 -5.308983 1.100079 5.778572 -2.310004 0.609189 4.553938 -1.093766 -1.611020 0.467128 0.824438 -0.416811 0.000000 0.000000 0.000000 5.835291 -1.464267 -1.546706 -9.042853 -1.685769 2.997006 -10.889511 -3.536011 5.631491 0.000000 0.000000 0.000000 6.435826 -1.636932 -1.030648 -0.343775 3.622382 -6.794848 -3.651138 0.632717 -4.084345 38.976857 -31.958715 -35.904361 -28.198643 -88.713666 -27.451335 0.000000 0.000000 0.000000 5.439577 -1.727297 -1.692367 0.501364 -3.631833 17.824782 1.303517 2.949865 -0.018988 -44.767638 47.622968 61.489290 -178.555843 77.913990 176.611043 0.000000 0.000000 0.000000 
0.206938 45.958759 5.776825 0.000000 0.000000 0.000000 -88.377737 -4.643032 2.745554 -5.974959 16.000913 9.989385 7.943245 3.960580 9.211270 20.786745 30.745011 -26.680150 -10.435090 0.263816 3.414946 0.000000 0.000000 0.000000 -90.002844 -2.421607 3.945738 -7.516830 -17.809641 -18.654746 15.874038 -0.005645 -8.305650 21.275365 -33.969119 35.347626 -7.810966 2.010252 -3.303883 0.000000 0.000000 0.000000 -87.749763 -5.082800 1.112218 5.705532 -2.262632 0.781307 4.464764 -1.093072 -1.646514 0.620374 0.809242 -0.384477 0.000000 0.000000 0.000000 5.757657 -1.441298 -1.619091 -9.148187 -1.519309 2.806522 -11.073964 -2.971410 6.128412 0.000000 0.000000 0.000000 6.407570 -1.626305 -1.143245 -0.296862 3.175428 -6.335165 -3.721335 0.364152 -3.858817 38.504464 -32.092545 -36.535457 -26.460995 -88.969976 -25.688910 0.000000 0.000000 0.000000 5.368906 -1.660999 -1.717577 0.492287 -3.345256 16.791822 0.921621 2.993232 -0.149652 -46.344551 46.791830 61.928888 -176.790936 79.036149 174.835972 0.000000 0.000000 0.000000 
0.207207 45.936394 5.764136 0.000000 0.000000 0.000000 -88.549045 -4.477772 2.629667 -5.643142 15.781975 10.293257 8.327728 4.205319 9.170819 20.319473 31.370956 -26.773544 -10.459843 0.280833 3.536786 0.000000 0.000000 0.000000 -90.311063 -2.491800 3.666467 -7.442855 -18.161785 -18.638464 15.647538 0.024306 -7.971404 22.216148 -33.405328 35.702738 -8.774821 2.071586 -3.370843 0.000000 0.000000 0.000000 -88.048720 -4.990348 0.968326 5.615930 -2.093019 1.002071 4.493246 -1.058644 -1.600442 0.837455 0.741377 -0.323193 0.000000 0.000000 0.000000 5.685136 -1.355762 -1.625727 -8.666144 -1.337128 2.323855 -9.473308 -2.350939 6.255560 0.000000 0.000000 0.000000 6.458187 -1.583364 -1.201484 -0.261305 2.764788 -6.138180 -3.567871 0.208994 -3.438917 38.428786 -32.418984 -36.557368 -22.915671 -89.304232 -22.171233 0.000000 0.000000 0.000000 5.449248 -1.534779 -1.656882 0.511662 -3.107702 16.168895 0.445551 2.890408 -0.202237 -45.035880 47.135016 60.102659 -175.721055 79.738538 173.858217 0.000000 0.000000 0.000000 
0.215187 45.949219 5.806794 0.000000 0.000000 0.000000 -88.454351 -4.403651 2.424812 -5.766242 15.260048 10.680390 8.671588 4.239369 9.144952 20.270673 31.803994 -26.969724 -10.372592 0.287060 3.612006 0.000000 0.000000 0.000000 -90.145957 -2.604033 3.280811 -7.458453 -18.023863 -18.452236 15.427406 -0.000463 -7.776243 23.302194 -33.051743 36.024556 -9.832528 2.055860 -3.387279 0.000000 0.000000 0.000000 -87.969695 -5.052002 0.678387 5.514427 -1.839826 1.215892 4.585115 -1.021246 -1.502062 1.043212 0.559664 -0.217030 0.000000 0.000000 0.000000 5.594972 -1.245417 -1.571045 -7.585651 -1.184924 1.681263 -6.071278 -1.781499 5.971016 0.000000 0.000000 0.000000 6.575800 -1.542043 -1.207057 -0.229295 2.479659 -6.141458 -3.340851 0.227319 -2.944027 38.694108 -32.861153 -36.134409 -20.194679 -89.592179 -19.503909 0.000000 0.000000 0.000000 5.627907 -1.402812 -1.534792 0.559227 -3.036847 16.020327 0.130516 2.839650 -0.274342 -40.310124 48.352139 55.932935 -175.957530 79.543604 174.308326 0.000000 0.000000 0.000000 
0.232349 45.992683 5.861059 0.000000 0.000000 0.000000 -88.083021 -4.468477 2.119585 -6.282968 14.511662 11.032122 8.831895 4.122225 9.154637 20.541119 32.042736 -27.130273 -10.120785 0.289584 3.596176 0.000000 0.000000 0.000000 -89.623072 -2.745796 2.837753 -7.583801 -17.436249 -18.116580 15.244719 -0.113020 -7.758471 24.176286 -33.071633 36.099087 -10.525251 1.969454 -3.305671 0.000000 0.000000 0.000000 -87.553258 -5.256708 0.269409 5.433967 -1.558403 1.376946 4.699311 -1.015367 -1.358763 1.128442 0.311541 -0.169759 0.000000 0.000000 0.000000 5.467159 -1.136992 -1.468555 -5.962806 -1.112454 0.985414 -1.105465 -1.427899 5.303235 0.000000 0.000000 0.000000 6.722413 -1.522786 -1.144414 -0.204400 2.433521 -6.255404 -3.030148 0.320767 -2.486747 39.195710 -33.408426 -35.450734 -20.167459 -89.666621 -19.562428 0.000000 0.000000 0.000000 5.855207 -1.298983 -1.374046 0.636502 -3.248399 16.320839 0.019698 2.844713 -0.331676 -32.215298 49.564053 49.610864 -177.433370 78.070660 176.085077 0.000000 0.000000 0.000000 
0.250136 46.053341 5.936729 0.000000 0.000000 0.000000 -87.534345 -4.679244 1.734205 -7.114660 13.703385 11.302421 8.759176 3.936268 9.219436 21.014047 32.078086 -27.129952 -9.791965 0.295676 3.467403 0.000000 0.000000 0.000000 -88.838604 -2.898896 2.418205 -7.899779 -16.520761 -17.727088 15.163592 -0.266771 -7.934052 24.822417 -33.408641 35.928680 -10.865553 1.849826 -3.112604 0.000000 0.000000 0.000000 -86.914198 -5.528420 -0.190894 5.407246 -1.298624 1.457373 4.806027 -1.051411 -1.182206 1.138131 0.245097 -0.160840 0.000000 0.000000 0.000000 5.301031 -1.066994 -1.323063 -3.922024 -1.171075 0.339488 5.027759 -1.364832 4.339673 0.000000 0.000000 0.000000 6.846343 -1.541511 -1.012915 -0.188410 2.668683 -6.380367 -2.817820 0.384479 -2.175474 39.782734 -34.028986 -34.684093 -21.410083 -89.398994 -20.915115 0.000000 0.000000 0.000000 6.054549 -1.249150 -1.187751 0.737666 -3.806487 17.016252 0.047948 2.948851 -0.447741 -21.993604 49.674682 42.302244 -179.064310 75.252798 178.065163 0.000000 0.000000 0.000000 
0.271567 46.118839 6.004128 0.000000 0.000000 0.000000 -86.859625 -5.004714 1.292089 -8.175384 12.984535 11.469746 8.518077 3.698535 9.311674 21.571704 31.864854 -26.980092 -9.565921 0.293755 3.291316 0.000000 0.000000 0.000000 -87.950700 -3.067621 2.020914 -8.497071 -15.488422 -17.379343 15.240643 -0.398774 -8.241396 25.550679 -33.834172 35.806737 -11.120193 1.729526 -2.854660 0.000000 0.000000 0.000000 -86.141635 -5.798239 -0.647586 5.465530 -1.107837 1.451136 4.877699 -1.147337 -0.976376 1.018236 0.299418 -0.228773 0.000000 0.000000 0.000000 5.101364 -1.051390 -1.139571 -1.635895 -1.308867 -0.203323 11.705574 -1.664720 3.216109 0.000000 0.000000 0.000000 6.902851 -1.606294 -0.818829 -0.186001 3.169370 -6.464639 -2.620343 0.440191 -2.097006 40.384665 -34.732765 -33.949766 -20.144154 -88.741192 -19.784615 0.000000 0.000000 0.000000 6.181285 -1.262539 -0.982751 0.866462 -4.692796 17.982478 0.169168 3.013749 -0.446566 -11.820479 48.164322 35.837118 179.830589 71.536847 179.490377 0.000000 0.000000 0.000000 
